<svg xmlns="http://www.w3.org/2000/svg" version="1.0" width="2150" height="870"><path d="M1200.938 515.563l-95.157 55.125C1209.661 749.602 1403.347 870 1625 870c221.628 0 415.32-120.368 519.219-299.25l-95.25-55.156C1964.136 661.69 1805.962 760 1624.969 760c-181.005 0-339.193-98.326-424.032-244.438z" fill="#009059"/><path d="M0 317.866V191.96h69.787v13.828H19.194v40.376h48.132v14.17H19.194v57.532H0m343.325 0V204.935h-35.632V191.96h89.473v12.975H362.52v112.931h-19.194m600.425 0V191.96h72.543v13.828h-53.35v40.376h51.775v14.17h-51.774v43.704h53.35v13.828H943.75m174.32-14.511a381.67 381.67 0 01-.59-11.78c-.132-3.87-.198-7.625-.197-11.267V191.96H1135v125.906h-25.986l-55.81-114.468c.525 5.406.92 10.044 1.182 13.914.262 3.87.393 7.142.393 9.816v90.738h-17.323V191.96h27.265l53.349 111.395M107.773 191.96v81.348c0 6.772.283 11.694.85 14.767.566 3.016 1.502 5.606 2.805 7.768 2.097 3.471 4.732 6.06 7.906 7.768 3.23 1.707 7.112 2.56 11.646 2.56 4.534 0 8.416-.853 11.647-2.56 3.287-1.707 5.95-4.297 7.99-7.768 1.247-2.105 2.126-4.666 2.636-7.682.567-3.073.85-7.967.85-14.682V191.96H170v78.873c0 17.584-3.06 30.189-9.181 37.814-6.064 7.569-16.01 11.353-29.839 11.353-7.367 0-13.601-1.138-18.702-3.414-5.044-2.334-9.323-5.919-12.836-10.756-2.607-3.699-4.478-7.881-5.611-12.548-1.133-4.723-1.7-11.922-1.7-21.596V191.96h15.642m117.457 54.716h12.143c9.058 0 15.624-1.764 19.7-5.293 4.133-3.528 6.199-9.218 6.199-17.072 0-6.43-1.613-11.239-4.84-14.425-3.227-3.187-8.095-4.78-14.605-4.78H225.23v41.57m16.303-54.716c13.36 0 23.068 2.419 29.125 7.256 6.114 4.837 9.171 12.52 9.171 23.047 0 8.365-1.783 15.08-5.35 20.145-3.51 5.008-8.915 8.536-16.218 10.584 6.736.74 11.52 3.102 14.35 7.085 2.83 3.927 4.246 10.357 4.246 19.292 0 1.764-.028 4.068-.085 6.914a335.388 335.388 0 00-.085 5.89c0 4.78.255 9.304.765 13.572A82.004 82.004 0 00280 317.866h-17.068c-1.698-5.634-2.604-14.995-2.717-28.083-.057-4.724-.142-8.366-.255-10.927-.17-6.885-1.387-11.694-3.651-14.425-2.208-2.732-5.972-4.098-11.294-4.098h-19.784v57.533h-16.559V191.96h32.862m197.678 125.906L410 191.96h16.03l20.505 95.176c.434 1.878.868 4.297 1.302 7.256.434 2.96.949 7.113 1.546 12.463a580.013 580.013 0 013.499-18.438 5.66 5.66 0 01.162-.768l21.645-95.69h16.68l20.668 94.068c.65 3.073 1.22 6.345 1.709 9.816a265.82 265.82 0 011.302 11.012c.325-2.732.759-5.663 1.302-8.793.596-3.13 1.383-6.828 2.36-11.096l20.83-95.006H555l-30.676 125.906h-18.796l-17.658-78.873c-.976-4.04-1.898-8.849-2.766-14.426-.814-5.633-1.628-12.12-2.441-19.462-1.031 10.3-3.011 21.397-5.94 33.29l-.163.769-18.227 78.702h-19.121m157.348-45.412h36.792l-18.047-60.861-18.744 60.861m49.869 45.412l-8.631-30.559h-45.51l-8.893 30.559H565l40.366-125.906h20.314L665 317.866h-18.57m128.085-14.511a387.58 387.58 0 01-.583-11.78 335.73 335.73 0 01-.194-11.267V191.96h17.476v125.906h-25.631l-55.049-114.468c.518 5.406.906 10.044 1.165 13.914.259 3.87.388 7.142.388 9.816v90.738H695V191.96h26.893l52.622 111.395m110.68-77.08c-.13-7.398-2.234-13.032-6.312-16.902-4.013-3.87-9.805-5.804-17.378-5.804-10.42 0-17.573 3.215-21.456 9.646-3.884 6.43-5.826 20.23-5.826 41.4 0 20.543 2.136 34.229 6.408 41.057 4.337 6.772 12.006 10.158 23.01 10.158 2.783 0 6.02-.199 9.709-.597 3.753-.399 8.09-1.025 13.01-1.878v-37.217h-19.904v-14.511H905v63.08c-8.738 1.822-16.44 3.159-23.107 4.013-6.667.853-12.815 1.28-18.446 1.28-8.415 0-15.567-.882-21.457-2.646-5.825-1.764-10.582-4.439-14.272-8.024-4.66-4.496-7.993-10.898-10-19.206-2.006-8.365-3.01-20.856-3.01-37.473 0-12.804.745-22.763 2.234-29.876 1.488-7.113 3.948-13.06 7.378-17.84 3.495-4.837 8.447-8.508 14.855-11.012 6.407-2.56 14.045-3.84 22.912-3.841 13.528 0 23.98 3.13 31.36 9.39 7.443 6.26 11.165 15.08 11.165 26.461v.342h-19.418" font-size="187.725" font-weight="400" fill="gray" font-family="Zurich Cn BT"/><path d="M0 139.846V12.781h16.413v54.358h42.59V12.78h16.329v127.065h-16.33V81.784H16.414v58.062H0m367.62 0V12.781h16.413v54.358h42.59V12.78h16.328v127.065h-16.329V81.784h-42.59v58.062H367.62m353.557 0V12.781h16.413v54.358h42.59V12.78h16.329v127.065H780.18V81.784h-42.59v58.062h-16.413M203.821 77.735c0 13.496-.53 23.748-1.59 30.754-1.06 6.95-2.767 12.463-5.122 16.54-3.297 5.514-7.92 9.735-13.866 12.664-5.889 2.871-12.836 4.307-20.844 4.307-6.536 0-12.453-.976-17.753-2.929-5.24-2.01-9.568-4.882-12.983-8.615-3.945-4.25-6.712-9.964-8.302-17.143-1.59-7.236-2.385-19.555-2.385-36.956 0-14.76.5-25.557 1.502-32.391 1-6.835 2.708-12.29 5.122-16.368 3.18-5.456 7.714-9.591 13.602-12.405 5.947-2.872 13.012-4.307 21.197-4.308 6.536 0 12.424.977 17.664 2.93 5.3 1.952 9.656 4.795 13.071 8.528 3.887 4.365 6.624 10.223 8.214 17.574 1.649 7.294 2.473 19.9 2.473 37.818m-17.576-1.378c0-21.48-1.766-35.378-5.299-41.695-3.474-6.317-9.715-9.476-18.724-9.476-3.945 0-7.448.718-10.51 2.153-3.003 1.379-5.417 3.418-7.242 6.117-2.179 3.216-3.74 7.466-4.681 12.75-.883 5.226-1.325 15.276-1.325 30.15 0 12.693.265 21.595.795 26.706.589 5.111 1.53 9.131 2.826 12.06 1.943 4.25 4.563 7.409 7.86 9.476 3.298 2.068 7.39 3.102 12.277 3.102 9.009 0 15.25-3.188 18.724-9.563 3.533-6.374 5.3-20.301 5.3-41.78m140.192 24.293v2.843c0 12.06-3.472 21.479-10.417 28.256-6.944 6.719-16.61 10.079-28.997 10.079-5.88 0-11.386-.776-16.516-2.326-5.068-1.55-9.166-3.676-12.294-6.375-5.255-4.422-8.977-10.797-11.167-19.125-2.127-8.327-3.19-21.823-3.19-40.488 0-13.037.656-23.059 1.97-30.065 1.376-7.007 3.66-12.865 6.85-17.574 3.129-4.71 7.633-8.327 13.514-10.855 5.943-2.526 12.825-3.79 20.645-3.79 12.575 0 22.147 3.245 28.716 9.735 6.632 6.432 9.948 15.822 9.948 28.17h-19.426v-1.896c0-7.58-1.658-13.238-4.974-16.97-3.253-3.734-8.195-5.6-14.827-5.6-4.191 0-7.883.747-11.073 2.24a18.774 18.774 0 00-7.601 6.547c-1.94 2.871-3.316 7.236-4.13 13.094-.813 5.8-1.22 16.856-1.22 33.166 0 19.24 1.752 32.133 5.256 38.68 3.566 6.547 9.822 9.82 18.768 9.82 7.132 0 12.388-2.124 15.766-6.374 3.44-4.308 5.161-10.883 5.161-19.728v-1.464h19.238m353.558 0v2.843c0 12.06-3.473 21.479-10.417 28.256-6.944 6.719-16.61 10.079-28.997 10.079-5.881 0-11.387-.776-16.517-2.326-5.067-1.55-9.165-3.676-12.293-6.375-5.255-4.422-8.978-10.797-11.167-19.125-2.128-8.327-3.191-21.823-3.191-40.488 0-13.037.657-23.059 1.97-30.065 1.377-7.007 3.66-12.865 6.851-17.574 3.128-4.71 7.633-8.327 13.513-10.855 5.944-2.526 12.826-3.79 20.646-3.79 12.575 0 22.147 3.245 28.716 9.735 6.631 6.432 9.947 15.822 9.947 28.17h-19.425v-1.896c0-7.58-1.658-13.238-4.974-16.97-3.253-3.734-8.196-5.6-14.827-5.6-4.192 0-7.883.747-11.074 2.24a18.774 18.774 0 00-7.6 6.547c-1.94 2.871-3.317 7.236-4.13 13.094-.813 5.8-1.22 16.856-1.22 33.166 0 19.24 1.752 32.133 5.255 38.68 3.566 6.547 9.822 9.82 18.769 9.82 7.132 0 12.387-2.124 15.765-6.374 3.441-4.308 5.162-10.883 5.162-19.728v-1.464h19.238m-192.679 2.498h18.234v2.326c0 8.098 1.484 14.013 4.451 17.746 3.025 3.676 7.79 5.513 14.296 5.513 6.164 0 11.243-1.837 15.238-5.513 3.995-3.675 5.992-8.299 5.992-13.87 0-7.293-7.818-15.85-23.455-25.671a417.818 417.818 0 00-5.137-3.274c-12.213-7.868-19.974-14.242-23.284-19.124-3.31-4.939-4.965-10.97-4.965-18.09 0-9.649 3.424-17.46 10.272-23.432 6.906-6.03 15.923-9.046 27.051-9.046 11.414 0 20.146 2.872 26.195 8.615 6.05 5.686 9.074 13.927 9.074 24.724v3.187h-17.377v-2.67c0-6.777-1.57-11.917-4.709-15.42-3.081-3.504-7.704-5.255-13.867-5.255-5.65 0-10.33 1.665-14.04 4.996-3.71 3.274-5.564 7.38-5.564 12.319 0 8.155 8.39 17.631 25.168 28.428a501.379 501.379 0 017.105 4.566c9.987 6.547 16.55 12.09 19.689 16.626 3.196 4.537 4.794 9.878 4.794 16.023 0 11.2-3.367 19.871-10.101 26.016-6.678 6.088-16.151 9.132-28.421 9.132-12.213 0-21.401-2.929-27.565-8.787-6.163-5.858-9.245-14.587-9.245-26.188 0-.402.029-1.034.086-1.896.057-.861.085-1.521.085-1.981m486.975 36.698V12.781h15.319V125.2h39.924v14.645h-55.243m90.398.001V12.781H1135v13.955h-51.707v40.748h50.18v14.3h-50.18v44.107H1135v13.955h-70.31M864.88 12.78v82.098c0 6.834.292 11.802.877 14.903.585 3.044 1.55 5.657 2.895 7.84 2.164 3.503 4.883 6.116 8.158 7.839 3.334 1.723 7.34 2.584 12.018 2.584 4.679 0 8.685-.861 12.018-2.584 3.392-1.723 6.14-4.336 8.246-7.84 1.287-2.124 2.193-4.709 2.72-7.753.584-3.1.877-8.04.877-14.817V12.781h16.404V92.38c0 17.746-3.158 30.467-9.474 38.163C913.36 138.18 903.098 142 888.829 142c-7.603 0-14.036-1.149-19.3-3.446-5.205-2.355-9.62-5.973-13.246-10.854-2.69-3.733-4.62-7.954-5.79-12.664-1.17-4.767-1.754-12.031-1.754-21.795v-80.46h16.14" font-size="195.041" font-weight="400" fill="gray" font-family="Zurich Cn BT"/><path d="M223.332 371.063v81.918c0 6.82.334 11.776 1.001 14.87.668 3.038 1.769 5.645 3.304 7.823 2.47 3.496 5.573 6.103 9.31 7.822 3.805 1.72 8.377 2.579 13.717 2.579s9.912-.86 13.716-2.579c3.871-1.72 7.008-4.326 9.411-7.822 1.469-2.12 2.503-4.7 3.104-7.736.667-3.095 1.001-8.023 1.001-14.785v-82.09h18.722v79.425c0 17.708-3.604 30.4-10.812 38.08C278.664 496.189 266.95 500 250.664 500c-8.677 0-16.019-1.146-22.026-3.438-5.94-2.35-10.98-5.96-15.118-10.831-3.07-3.725-5.273-7.937-6.607-12.636-1.335-4.756-2.003-12.005-2.003-21.747v-80.285h18.422m182.515 112.175a385.641 385.641 0 01-.6-11.862 331.11 331.11 0 01-.201-11.346v-88.967h18.021v126.788h-26.43l-56.768-115.27c.534 5.444.935 10.115 1.202 14.012.267 3.896.4 7.191.4 9.885v91.373h-17.62V371.063h27.732l54.264 112.175m44.352 14.613V371.063h19.924v126.788h-19.924m74.989 0l-41.85-126.788h22.126l26.431 94.554c.134.4.3.974.501 1.719 2.203 7.965 3.704 13.84 4.505 17.621.534-2.12 1.235-5.014 2.103-8.681 1.335-5.272 2.27-8.768 2.803-10.487l28.033-94.726h20.524l-41.849 126.788h-23.327m78.592 0V371.063h73.787v13.925h-54.264v40.658h52.662v14.27h-52.662v44.01h54.264v13.925H603.78m114.435-71.689h14.317c10.679 0 18.421-1.776 23.227-5.33 4.873-3.552 7.309-9.283 7.309-17.19 0-6.476-1.903-11.319-5.707-14.528-3.804-3.209-9.545-4.813-17.22-4.813h-21.926v41.861m19.223-55.099c15.751 0 27.198 2.436 34.34 7.306 7.208 4.871 10.813 12.608 10.813 23.21 0 8.423-2.103 15.185-6.308 20.285-4.138 5.043-10.512 8.596-19.122 10.659 7.942.745 13.582 3.123 16.92 7.134 3.337 3.955 5.006 10.43 5.006 19.427 0 1.776-.034 4.097-.1 6.963-.067 2.808-.1 4.785-.1 5.93 0 4.814.3 9.37.9 13.668a72.232 72.232 0 003.004 12.206h-20.124c-2.002-5.673-3.07-15.1-3.203-28.28-.067-4.756-.167-8.424-.3-11.003-.201-6.934-1.636-11.776-4.306-14.527-2.603-2.75-7.042-4.126-13.316-4.126h-23.327v57.936h-19.523V371.063h38.746m67.279 90.17h21.325v2.32c0 8.08 1.735 13.983 5.206 17.708 3.538 3.668 9.11 5.501 16.72 5.501 7.208 0 13.149-1.833 17.82-5.5 4.673-3.668 7.009-8.281 7.01-13.84-.001-7.278-9.145-15.816-27.433-25.616a506.43 506.43 0 00-6.007-3.266c-14.284-7.85-23.361-14.212-27.232-19.083-3.872-4.928-5.807-10.945-5.807-18.05 0-9.628 4.004-17.422 12.014-23.381 8.076-6.017 18.622-9.026 31.637-9.026 13.35 0 23.561 2.865 30.636 8.596 7.075 5.673 10.613 13.896 10.613 24.67v3.18h-20.324v-2.665c0-6.761-1.836-11.89-5.507-15.386-3.604-3.496-9.01-5.243-16.219-5.243-6.608 0-12.08 1.662-16.42 4.985-4.338 3.267-6.507 7.364-6.507 12.292 0 8.138 9.812 17.593 29.435 28.366a606.754 606.754 0 018.31 4.556c11.68 6.533 19.356 12.063 23.027 16.59 3.738 4.527 5.606 9.856 5.606 15.988 0 11.175-3.938 19.828-11.813 25.96-7.81 6.074-18.89 9.111-33.24 9.111-14.283 0-25.03-2.923-32.238-8.768-7.208-5.845-10.812-14.555-10.812-26.131 0-.401.033-1.031.1-1.891.067-.86.1-1.519.1-1.977M918.35 497.85V371.063h19.923v126.788H918.35m71.884 0V384.129h-36.242v-13.066H1045v13.066h-35.241V497.85h-19.524m100.881.001v-53.122L1060 371.063h17.93l22.593 59.74 23.638-59.74H1140l-32.965 75.213v51.575h-15.92" font-size="189.361" font-weight="400" fill="gray" font-family="Zurich Cn BT"/><path d="M1740 270a115 115 0 11-230 0 115 115 0 11230 0z" fill="#009059"/><path d="M1700.781.594L1671 106.5c71.462 20.075 123.906 85.744 123.906 163.594 0 93.79-76.115 169.906-169.906 169.906a169.89 169.89 0 01-43.688-5.688l-28.28 106.313A279.996 279.996 0 001625 550c154.51 0 279.906-125.396 279.906-279.906 0-128.249-86.4-236.427-204.125-269.5z" fill="#009059"/><path d="M2050.219 156.813l-106.563 28.375c7.22 27.12 11.063 55.617 11.063 85 0 182.061-147.751 329.812-329.813 329.812-91.738 0-174.76-37.517-234.562-98.031l-78.25 77.312C1391.867 659.982 1502.617 710 1624.969 710c242.862 0 439.969-197.107 439.968-439.969 0-39.143-5.111-77.086-14.718-113.219z" fill="#009059"/></svg>